<svg width="33" height="33" viewBox="0 0 33 33" fill="none" xmlns="http://www.w3.org/2000/svg">
<path d="M18.701 15.0635L16.5182 14.8848L14.3835 15.0704C14.1154 16.686 14.5657 18.3841 16.4425 18.556C18.3366 18.7932 18.8454 16.5485 18.701 15.0635Z" fill="white"/>
<path d="M18.7002 15.0635C22.1136 13.3723 23.0005 6.77572 16.5105 6.52822C12.0967 6.43885 10.3505 13.1935 14.3827 15.0704C15.6339 15.1013 17.4489 15.036 18.7002 15.0635Z" fill="#FFCC80"/>
<path d="M18.2766 11.3958C18.0153 11.6914 17.8091 12.0214 17.6509 12.3755C17.3931 12.3961 17.1766 12.3686 17.0116 12.2964C17.2934 12.0558 17.4859 11.743 17.5031 11.3718C17.5478 10.918 17.0734 10.5227 16.6472 10.7599C16.1969 11.0246 16.08 11.6674 16.2278 12.1555C16.0422 12.2311 15.8531 12.2896 15.7156 12.3171C15.3581 9.58426 13.2922 11.8839 14.8734 12.7708C14.9834 12.8086 15.1038 12.8327 15.2309 12.843C15.2447 13.3277 15.2206 13.8777 15.1966 14.3246C15.2 14.7268 15.0763 15.0189 15.1553 15.3318C15.2584 15.5243 15.5781 15.3146 15.6263 15.098C15.75 14.1527 15.7878 13.4102 15.7603 12.8293C16.0181 12.7949 16.2828 12.7158 16.5234 12.6058C16.7709 12.8155 17.1044 12.8877 17.4481 12.8911C17.2247 13.5821 17.1319 14.3246 17.0872 15.0293C17.0838 15.3593 17.6028 15.3661 17.6028 15.0293C17.6372 14.2936 17.7197 13.7608 17.9706 12.9771C17.9844 12.9324 18.0016 12.8877 18.0188 12.8396C18.1356 12.8189 18.2525 12.7949 18.3591 12.7674C19.9575 12.4511 19.3766 10.3474 18.2766 11.3958ZM14.8872 11.6055C14.9044 11.5849 14.9216 11.5643 14.9422 11.5471C15.0041 11.5471 15.0281 11.6777 15.0797 11.798C15.1381 11.9218 15.1759 12.1143 15.2 12.3411C14.7703 12.2518 14.7428 11.8289 14.8872 11.6055ZM16.7675 11.2996C16.8191 11.2171 16.8809 11.1896 16.9359 11.2068C16.9909 11.2239 17.0459 11.4405 16.8328 11.7568C16.7984 11.8118 16.74 11.8702 16.6884 11.9114C16.6541 11.7464 16.74 11.3443 16.7675 11.2996ZM18.2834 12.2621C18.3625 12.1211 18.445 11.9905 18.5309 11.8874C18.6513 11.7499 18.6994 11.688 18.8059 11.6261C18.9125 11.8083 18.7888 12.1005 18.2834 12.2621ZM11.3431 4.52082C11.6697 5.09145 12.0169 5.65176 12.3778 6.20176C12.4534 6.3152 12.6081 6.37363 12.7319 6.29457C12.8453 6.22238 12.9038 6.06082 12.8247 5.94051C12.4638 5.39051 12.12 4.8302 11.79 4.25957C11.6216 3.97082 11.1713 4.23207 11.3431 4.52082ZM16.9016 2.8777C16.8569 3.44832 16.8088 4.01895 16.7641 4.58957C16.7641 4.84051 16.5956 5.30801 16.9841 5.33207C17.1319 5.3252 17.2316 5.21863 17.2419 5.07426C17.2866 4.50363 17.3347 3.93301 17.3794 3.36238C17.3931 3.20082 17.4069 3.03926 17.4172 2.8777C17.4241 2.5477 16.905 2.54426 16.9016 2.8777ZM21.7003 6.2602C22.1266 5.82363 22.6663 5.34926 23.1063 5.01238C23.1406 4.9677 23.4225 4.82332 23.4534 4.68582C23.5222 4.47957 23.2609 4.26645 23.0753 4.39363C22.5906 4.75113 22.1266 5.13613 21.69 5.54863C21.525 5.74113 21.0884 5.97832 21.3359 6.2602C21.4356 6.35301 21.5972 6.36332 21.7003 6.2602Z" fill="white"/>
<path d="M27.6078 24.8703C27.2297 23.6121 24.9506 23.7978 23.8919 23.7943C25.425 23.1137 26.9719 22.0721 27.5391 20.4325C27.7247 19.8756 27.405 19.2568 26.8309 19.109C25.6828 18.8546 24.7341 19.8515 23.7784 20.3362C23.0222 20.8037 22.2591 21.2643 21.4753 21.6837C22.5512 19.8721 23.4828 16.8918 21.4478 15.4103C20.5025 14.6093 18.5087 15.125 18.8078 16.5721C18.8869 16.8746 19.0931 17.16 19.1962 17.4281C19.5778 18.4284 19.3028 19.6143 18.5225 20.3396C17.395 21.3021 15.2534 20.8759 14.3631 19.7587C13.5416 18.7962 14.095 17.5381 14.2394 16.4484C14.3012 15.4171 12.9469 15.0287 12.1872 15.4962C11.4997 15.9259 11.0837 16.72 10.9256 17.4968C10.7984 18.5556 10.8741 19.7243 11.4447 20.6525C9.60218 21.4603 7.57406 21.7215 5.70062 22.4503C5.57 22.5018 5.48062 22.6221 5.52187 22.7665C5.55625 22.8903 5.7075 22.9968 5.83812 22.9453C7.83531 22.1615 10.0181 21.9175 11.9603 20.979C12.1253 20.9 12.1047 20.6903 12.0119 20.5734C11.1319 19.3462 11.0734 16.9743 12.3522 15.9981C12.6959 15.7231 13.2047 15.7678 13.5587 16.0015C13.7856 16.1871 13.7341 16.5137 13.6791 16.7681C13.4075 17.734 13.1978 18.8615 13.7547 19.7656C14.7241 21.3193 17.1578 21.8968 18.6875 20.8656C19.8116 19.9993 20.2 18.339 19.6019 17.0568C18.2337 15.0081 22.1903 14.7812 22.1387 17.9471C22.0391 19.5146 21.465 21.1715 20.31 22.2715C19.6191 23.9903 25.6553 19.4803 26.2741 19.5731C27.6112 19.4665 26.9616 20.7075 26.4803 21.3021C25.2634 22.8353 23.3384 23.4987 21.5475 24.1106C21.2347 24.2171 21.3584 24.6778 21.685 24.609C22.9225 24.3375 26.0987 23.9181 27.0441 24.8256C27.2778 25.1246 26.9409 25.5784 26.4562 25.7743C20.2825 26.8881 14.1053 28.0706 8.05187 29.7275C7.87312 29.7756 7.69781 29.8237 7.51906 29.8718C7.19937 29.9612 7.33687 30.4562 7.65656 30.3703C13.0706 28.9128 18.5534 27.689 24.0844 26.7368C25.2806 26.455 27.7075 26.6371 27.6078 24.8703ZM14.0537 19.2465C14.0572 19.2568 14.0572 19.2534 14.0537 19.2465ZM18.3747 20.4703C18.3644 20.4771 18.3541 20.4875 18.3747 20.4703ZM26.9066 24.7087C26.9306 24.7293 26.9169 24.7156 26.9066 24.7087Z" fill="white"/>
</svg>
