<svg width="19" height="27" viewBox="0 0 19 27" fill="none" xmlns="http://www.w3.org/2000/svg">
<path d="M13.3287 17.1455C12.9048 17.1455 12.4954 17.3064 12.2031 17.6134L11.7348 18.0813C10.5069 19.3092 8.49022 19.3092 7.26229 18.0813L6.79405 17.6134C6.50168 17.3064 6.09235 17.1455 5.66842 17.1455H5.0253C4.96683 17.1455 4.92283 17.1309 4.87898 17.1309H4.80617L2.18945 26.3111L6.23873 24.6884C8.32913 23.8551 10.668 23.8551 12.7584 24.6884L16.8077 26.3111L14.191 17.1309H14.1181C14.0743 17.1309 14.0303 17.1455 13.9718 17.1455H13.3287Z" fill="white"/>
<path opacity="0.4" fill-rule="evenodd" clip-rule="evenodd" d="M18.0791 7.26551L17.6108 6.79762C17.3038 6.50526 17.1433 6.09592 17.1433 5.67199V5.02887C17.1433 3.27469 15.7254 1.85684 13.9712 1.85684H13.3281C12.9042 1.85684 12.4949 1.69594 12.2025 1.38895L11.7343 0.92107C10.5063 -0.30686 8.48964 -0.30686 7.26171 0.92107L6.79347 1.38895C6.50111 1.69594 6.09177 1.85684 5.66784 1.85684H5.02473C3.27054 1.85684 1.85269 3.27469 1.85269 5.02887V5.67199C1.85269 6.09592 1.6918 6.50526 1.39944 6.79762L0.931911 7.26551C-0.310637 8.49344 -0.310637 10.5108 0.931911 11.7388L1.39944 12.2066C1.6918 12.499 1.85269 12.9084 1.85269 13.3323V13.9754C1.85269 15.6857 3.19731 17.0597 4.8784 17.1328C4.92226 17.1328 4.96625 17.1474 5.02473 17.1474H5.68283C6.09214 17.1474 6.50111 17.3083 6.79347 17.6153L7.26171 18.0832C8.50426 19.3111 10.5063 19.3111 11.7343 18.0832L12.2025 17.6153C12.5095 17.3083 12.9042 17.1474 13.3281 17.1474H13.9855C14.0294 17.1474 14.0737 17.1328 14.1176 17.1328C15.7987 17.0597 17.1433 15.6857 17.1433 13.9754V13.3323C17.1433 12.9084 17.3184 12.499 17.6108 12.2066L18.0791 11.7388C19.307 10.5108 19.307 8.49344 18.0791 7.26551Z" fill="white"/>
<path d="M8.51916 12.5415C8.22679 12.5415 7.94865 12.4246 7.74399 12.22L5.80037 10.2756C5.37644 9.85169 5.37644 9.14993 5.80037 8.72601C6.2243 8.30208 6.92534 8.30208 7.34927 8.72601L8.51916 9.89553L11.6477 6.78167C12.0716 6.34312 12.7726 6.34312 13.1966 6.78167C13.6351 7.2056 13.6351 7.89274 13.1966 8.33129L9.3086 12.22C9.08932 12.4246 8.81152 12.5415 8.51916 12.5415Z" fill="white"/>
</svg>
