<svg width="25" height="26" viewBox="0 0 25 26" fill="none" xmlns="http://www.w3.org/2000/svg">
<path opacity="0.4" d="M25 13.1061V21.7254C25 24.5747 23.6111 25.9993 20.8333 25.9993H4.16667C1.38889 25.9993 0 24.5747 0 21.7254V13.0918C0.416667 13.5904 0.944451 13.9752 1.56945 14.2316C3.09723 14.8442 5.19444 15.5709 7.63889 16.0837C8.20833 16.1977 8.76386 15.9128 9.0833 15.4284C9.8333 14.2745 11.0833 13.4337 12.5 13.4337C13.9167 13.4337 15.1667 14.2745 15.9167 15.4284C16.25 15.9128 16.8056 16.1977 17.375 16.0837C19.8195 15.5709 21.9167 14.8442 23.4305 14.2316C24.0417 13.9752 24.5833 13.5904 25 13.1061Z" fill="white"/>
<path d="M25 9.40472V14.0989C24.5833 14.64 24.0417 15.0697 23.4305 15.3561C21.9167 16.0404 19.8195 16.852 17.375 17.4249C16.8056 17.5522 16.25 17.234 15.9167 16.6929C15.1667 15.404 13.9167 14.4649 12.5 14.4649C11.0833 14.4649 9.8333 15.404 9.0833 16.6929C8.76386 17.234 8.20833 17.5522 7.63889 17.4249C5.19444 16.852 3.09723 16.0404 1.56945 15.3561C0.944451 15.0697 0.416667 14.64 0 14.083V9.40472C0 6.22215 1.38889 4.63086 4.16667 4.63086H20.8333C23.6111 4.63086 25 6.22215 25 9.40472Z" fill="white"/>
<path opacity="0.4" d="M19.0968 2.49316V4.63016H17.0135V2.49316C17.0135 2.29371 16.8607 2.137 16.6662 2.137H8.3329C8.13845 2.137 7.98568 2.29371 7.98568 2.49316V4.63016H5.90234V2.49316C5.90234 1.12549 6.98568 0 8.3329 0H16.6662C17.9996 0 19.0968 1.12549 19.0968 2.49316Z" fill="white"/>
<path d="M12.503 18.8767C11.7377 18.8767 11.1113 18.2356 11.1113 17.452C11.1113 16.6684 11.7266 16.0273 12.4919 16.0273H12.503C13.2683 16.0273 13.8891 16.6684 13.8891 17.452C13.8891 18.2356 13.2683 18.8767 12.503 18.8767Z" fill="white"/>
</svg>
