<svg width="30" height="26" viewBox="0 0 30 26" fill="none" xmlns="http://www.w3.org/2000/svg">
<path opacity="0.4" d="M27.0074 4.33357V7.55446C27.0074 7.81445 26.7223 7.84349 26.5872 7.7135C25.762 6.93354 24.6666 6.50011 23.5113 6.50011C22.341 6.50011 21.246 6.93354 20.4208 7.7135C19.1604 7.74238 17.9748 8.26235 17.1496 9.15786C16.4294 9.92337 16.0393 10.9054 16.0093 11.9598C14.3288 13.6064 14.3438 16.2638 16.0243 17.9104C16.0243 18.517 16.1744 19.1095 16.4294 19.6295C16.5645 19.9039 16.3394 20.2215 16.0093 20.2215H4.50123C1.50041 20.2215 0 18.7772 0 15.8884V4.33357C0 1.44485 1.50041 0.000488281 4.50123 0.000488281H22.5062C25.507 0.000488281 27.0074 1.44485 27.0074 4.33357Z" fill="white"/>
<path d="M15.0028 8.3057H6.00031C5.38514 8.3057 4.875 7.81462 4.875 7.22243C4.875 6.63024 5.38514 6.13916 6.00031 6.13916H15.0028C15.6179 6.13916 16.1281 6.63024 16.1281 7.22243C16.1281 7.81462 15.6179 8.3057 15.0028 8.3057ZM11.6268 12.9999C11.6268 12.4077 11.1167 11.9166 10.5015 11.9166H6.00031C5.38514 11.9166 4.875 12.4077 4.875 12.9999C4.875 13.5921 5.38514 14.0831 6.00031 14.0831H10.5015C11.1167 14.0831 11.6268 13.5921 11.6268 12.9999Z" fill="white"/>
<path d="M26.1218 19.9622C25.8368 19.9622 25.5667 20.0777 25.3566 20.2655L25.0416 20.5687C24.1864 21.392 22.8209 21.392 21.9807 20.5687L21.6506 20.2655C21.4556 20.0777 21.1705 19.9622 20.8854 19.9622H20.4356C20.3906 19.9622 20.3454 19.9478 20.3004 19.9478L18.5 25.9995L21.2755 24.9307C22.7009 24.3819 24.3063 24.3819 25.7317 24.9307L28.5076 25.9995L26.7222 19.9478C26.6622 19.9478 26.617 19.9622 26.572 19.9622H26.1218Z" fill="white"/>
<path opacity="0.4" fill-rule="evenodd" clip-rule="evenodd" d="M29.3785 13.4475C28.8234 12.9853 28.6881 12.6675 28.7331 11.9743C28.7481 10.631 27.4577 9.73558 26.1224 9.89446C25.6722 9.90891 25.3122 9.57645 25.0421 9.27313C24.1869 8.46429 22.8214 8.46429 21.9662 9.27313C21.6961 9.57645 21.3361 9.90891 20.8859 9.89446C19.2955 9.72114 18.0952 10.8766 18.2752 12.4076C18.3053 12.8409 17.9453 13.1731 17.6302 13.4475C16.7899 14.2708 16.7899 15.5852 17.6302 16.3941C18.1853 16.8563 18.3203 17.1737 18.2752 17.8815C18.2752 18.9792 19.1606 19.8749 20.3009 19.9472C20.7511 19.976 21.3061 19.8893 21.6512 20.2649C22.4764 21.2904 24.0518 21.5358 25.0421 20.5681C25.3122 20.2793 25.6722 19.9327 26.1224 19.9616C26.2124 19.9327 26.6177 19.9905 26.7077 19.9472C27.848 19.8749 28.7331 18.9792 28.7331 17.8815C28.7181 17.477 28.7184 17.0007 29.0485 16.7118C30.1137 15.903 30.3688 14.4008 29.3785 13.4475Z" fill="white"/>
<path d="M23.5114 17.3338C24.8918 17.3338 26.0023 16.2506 26.0023 14.9218C26.0023 13.593 24.8918 12.5239 23.5114 12.5239C22.1311 12.5239 21.0059 13.593 21.0059 14.9218C21.0059 16.2506 22.1311 17.3338 23.5114 17.3338Z" fill="white"/>
</svg>
