<svg width="24" height="24" viewBox="0 0 24 24" fill="none" xmlns="http://www.w3.org/2000/svg">
<g clip-path="url(#clip0_280_3216)">
<path d="M4.80352 23.1593L6.41602 15.003L0.275391 9.39678L8.53008 8.4124L11.9613 0.837402L15.4488 8.38428L23.7129 9.30772L17.6145 14.9608L19.2879 23.103L12.0316 19.0483L4.80352 23.1593Z" fill="#FFD759"/>
<path d="M11.9941 12.0015L0.275391 9.3999L6.41602 15.0062L11.9941 12.0015Z" fill="#FABD3B"/>
<path d="M12.0031 12L4.8125 23.1609L12.0406 19.05L19.2969 23.1047L12.0031 12Z" fill="#FABD3B"/>
<path d="M12 12.0031L23.7188 9.3125L17.6203 14.9656L12 12.0031Z" fill="#FABD3B"/>
<path d="M11.9629 0.837402L11.9957 11.9983L15.4504 8.38428L11.9629 0.837402Z" fill="#FABD3B"/>
</g>
<defs>
<clipPath id="clip0_280_3216">
<rect width="24" height="24" fill="white"/>
</clipPath>
</defs>
</svg>
