<svg width="22" height="22" viewBox="0 0 22 22" fill="none" xmlns="http://www.w3.org/2000/svg">
<path d="M8.54503 9.12242C10.9677 9.12242 12.9299 7.16019 12.9299 4.73754C12.9299 2.31489 10.9677 0.352661 8.54503 0.352661C6.12239 0.352661 4.16016 2.31489 4.16016 4.73754C4.16016 7.16019 6.12239 9.12242 8.54503 9.12242Z" fill="#FFD657"/>
<path opacity="0.4" d="M15.1554 13.0141C14.2016 11.9947 12.7656 11.3149 10.7266 11.3149H6.34171C1.89106 11.3149 0.3125 14.5707 0.3125 17.3661C0.3125 19.8655 1.63893 21.1809 4.14927 21.1809H12.4697C12.6451 21.1809 12.7545 21.0495 12.8093 20.7645L13.0288 19.5037C13.0507 19.394 13.0177 19.2844 12.93 19.2077L11.9325 18.2431C11.3406 17.6841 11.1213 16.8509 11.3735 16.0726C11.6256 15.2834 12.2941 14.7242 13.1053 14.6146L14.4756 14.4173C14.4756 14.4173 14.6948 14.3953 14.7606 14.2637L15.1993 13.3867C15.1993 13.3867 15.2541 13.299 15.2431 13.1785C15.2322 13.1346 15.2102 13.0689 15.1554 13.0141Z" fill="#FFD657"/>
<path d="M17.7762 13.793L18.719 15.6675C18.7958 15.81 18.9271 15.9087 19.0916 15.9306L21.2733 16.2376C21.6679 16.3033 21.8324 16.7857 21.5364 17.0597L19.9576 18.5617C19.848 18.6713 19.7933 18.8356 19.8262 18.9891L20.1878 21.0498C20.2536 21.4664 19.8042 21.7846 19.4315 21.5872L17.535 20.6224C17.3925 20.5457 17.2172 20.5457 17.0747 20.6224L15.1892 21.5872C14.8056 21.7846 14.3562 21.4664 14.4219 21.0498L14.7835 18.9891C14.8164 18.8356 14.7617 18.6713 14.6521 18.5617L13.0733 17.0597C12.7774 16.7857 12.9418 16.3033 13.3364 16.2485L15.5181 15.9306C15.6826 15.9087 15.814 15.81 15.8907 15.6675L16.8336 13.793C17.0309 13.4093 17.5788 13.4093 17.7762 13.793Z" fill="#FFD657"/>
</svg>
