<svg width="28" height="29" viewBox="0 0 28 29" fill="none" xmlns="http://www.w3.org/2000/svg">
<path opacity="0.4" d="M20.0588 8.5791H17.3657C14.3899 8.5791 13.3262 10.7605 13.3262 12.6321C13.3262 14.3288 14.3091 15.3117 16.0192 15.3117H21.4053C23.1154 15.3117 24.0983 14.3288 24.0983 12.6321C24.0983 10.7605 23.0346 8.5791 20.0588 8.5791Z" fill="#FFD657"/>
<path d="M18.7113 6.55935C20.3945 6.55935 21.741 5.19936 21.741 3.52967C21.741 1.85999 20.3945 0.5 18.7113 0.5C17.0416 0.5 15.6816 1.85999 15.6816 3.52967C15.6816 5.19936 17.0416 6.55935 18.7113 6.55935Z" fill="#FFD657"/>
<path opacity="0.4" d="M9.28534 22.0443H6.5923C3.61649 22.0443 2.55273 24.2257 2.55273 26.0974C2.55273 27.794 3.5357 28.7769 5.24578 28.7769H10.6319C12.3419 28.7769 13.3249 27.794 13.3249 26.0974C13.3249 24.2257 12.2612 22.0443 9.28534 22.0443Z" fill="#FFD657"/>
<path d="M7.93983 20.0246C9.62298 20.0246 10.9695 18.6646 10.9695 16.9949C10.9695 15.3252 9.62298 13.9652 7.93983 13.9652C6.27014 13.9652 4.91016 15.3252 4.91016 16.9949C4.91016 18.6646 6.27014 20.0246 7.93983 20.0246Z" fill="#FFD657"/>
<path d="M1.8807 14.4368C1.84031 14.4368 1.81327 14.4368 1.77288 14.4368C1.2208 14.383 0.816965 13.8713 0.884291 13.3193C1.36904 8.86228 4.06221 5.01121 8.08831 3.03182C8.39801 2.8837 8.77501 2.89722 9.07125 3.08574C9.36748 3.27425 9.54233 3.59743 9.54233 3.94753V8.05432C9.54233 8.6064 9.09798 9.06421 8.53244 9.06421C7.98037 9.06421 7.52255 8.6064 7.52255 8.05432V5.69791C4.93723 7.50225 3.24069 10.3299 2.89059 13.5481C2.82327 14.0598 2.39238 14.4368 1.8807 14.4368Z" fill="#FFD657"/>
<path d="M19.4669 26.5007C19.2784 26.5007 19.0897 26.4467 18.9281 26.339C18.6319 26.1639 18.457 25.8274 18.457 25.4908V21.3838C18.457 20.8183 18.9148 20.374 19.4669 20.374C20.019 20.374 20.4768 20.8183 20.4768 21.3838V23.7268C23.0621 21.9224 24.7722 19.0948 25.1222 15.8766C25.1761 15.3245 25.6744 14.934 26.2265 14.9879C26.7786 15.0417 27.1824 15.5534 27.1151 16.1054C26.6303 20.5624 23.9372 24.4135 19.9111 26.3929C19.7764 26.4602 19.615 26.5007 19.4669 26.5007Z" fill="#FFD657"/>
</svg>
